<?xml version="1.0" encoding="UTF-8"?>
<svg width="700pt" height="700pt" version="1.1" viewBox="0 0 700 700" xmlns="http://www.w3.org/2000/svg" xmlns:xlink="http://www.w3.org/1999/xlink">
 <defs>
  <symbol id="t" overflow="visible">
   <path d="m3.6094-0.21875c-0.1875 0.09375-0.38281 0.16797-0.57812 0.21875-0.19922 0.050781-0.41406 0.078125-0.64062 0.078125-0.64844 0-1.1641-0.17969-1.5469-0.54688-0.38672-0.36328-0.57812-0.86328-0.57812-1.5 0-0.625 0.19141-1.1172 0.57812-1.4844 0.38281-0.36328 0.89844-0.54688 1.5469-0.54688 0.22656 0 0.44141 0.027344 0.64062 0.078125 0.19531 0.042969 0.39062 0.11719 0.57812 0.21875v0.8125c-0.1875-0.13281-0.375-0.22656-0.5625-0.28125-0.17969-0.0625-0.36719-0.09375-0.5625-0.09375-0.36719 0-0.65234 0.11719-0.85938 0.34375-0.21094 0.23047-0.3125 0.54688-0.3125 0.95312s0.10156 0.73047 0.3125 0.96875c0.20703 0.23047 0.49219 0.34375 0.85938 0.34375 0.19531 0 0.38281-0.03125 0.5625-0.09375 0.1875-0.0625 0.375-0.15625 0.5625-0.28125z"/>
  </symbol>
  <symbol id="c" overflow="visible">
   <path d="m2.6406-2.1406c-0.085937-0.039063-0.16797-0.070313-0.25-0.09375-0.074219-0.019531-0.15234-0.03125-0.23438-0.03125-0.25 0-0.44531 0.078125-0.57812 0.23438-0.125 0.15625-0.1875 0.38281-0.1875 0.67188v1.3594h-0.9375v-2.9531h0.9375v0.48438c0.125-0.1875 0.26562-0.32031 0.42188-0.40625 0.15625-0.09375 0.34375-0.14062 0.5625-0.14062h0.09375c0.039062 0 0.097656 0.007813 0.17188 0.015625z"/>
  </symbol>
  <symbol id="b" overflow="visible">
   <path d="m3.3906-1.4844v0.26562h-2.2031c0.03125 0.23047 0.11328 0.40234 0.25 0.51562 0.13281 0.10547 0.32031 0.15625 0.5625 0.15625 0.19531 0 0.39844-0.023437 0.60938-0.078125 0.20703-0.0625 0.42188-0.15625 0.64062-0.28125v0.73438c-0.21875 0.085938-0.44531 0.14844-0.67188 0.1875-0.21875 0.039062-0.4375 0.0625-0.65625 0.0625-0.53125 0-0.94922-0.13281-1.25-0.40625-0.29297-0.26953-0.4375-0.64844-0.4375-1.1406 0-0.47656 0.14453-0.85156 0.4375-1.125 0.28906-0.28125 0.6875-0.42188 1.1875-0.42188 0.46875 0 0.83594 0.14062 1.1094 0.42188 0.28125 0.27344 0.42188 0.64062 0.42188 1.1094zm-0.96875-0.3125c0-0.17578-0.054687-0.31641-0.15625-0.42188-0.10547-0.11328-0.24219-0.17188-0.40625-0.17188-0.17969 0-0.32422 0.054687-0.4375 0.15625-0.11719 0.10547-0.1875 0.25-0.21875 0.4375z"/>
  </symbol>
  <symbol id="d" overflow="visible">
   <path d="m1.7812-1.3281c-0.19922 0-0.35156 0.039063-0.45312 0.10938-0.09375 0.0625-0.14062 0.15625-0.14062 0.28125s0.035156 0.22656 0.10938 0.29688c0.082031 0.0625 0.19531 0.09375 0.34375 0.09375 0.17578 0 0.32031-0.0625 0.4375-0.1875 0.125-0.13281 0.1875-0.29688 0.1875-0.48438v-0.10938zm1.4375-0.35938v1.6875h-0.95312v-0.4375c-0.125 0.17969-0.27344 0.30859-0.4375 0.39062-0.15625 0.082031-0.34375 0.125-0.5625 0.125-0.3125 0-0.5625-0.085938-0.75-0.26562-0.1875-0.17578-0.28125-0.41016-0.28125-0.70312 0-0.34375 0.11328-0.59375 0.34375-0.75 0.23828-0.16406 0.61328-0.25 1.125-0.25h0.5625v-0.078125c0-0.14453-0.0625-0.25-0.1875-0.3125-0.11719-0.070312-0.29688-0.10938-0.54688-0.10938-0.19922 0-0.38672 0.023437-0.5625 0.0625-0.16797 0.042969-0.32812 0.10156-0.48438 0.17188v-0.71875c0.20703-0.039062 0.41016-0.070312 0.60938-0.09375 0.20703-0.03125 0.41016-0.046875 0.60938-0.046875 0.53125 0 0.91406 0.10547 1.1562 0.3125 0.23828 0.21094 0.35938 0.54688 0.35938 1.0156z"/>
  </symbol>
  <symbol id="a" overflow="visible">
   <path d="m1.4844-3.7812v0.82812h0.96875v0.67188h-0.96875v1.25c0 0.14844 0.023437 0.24609 0.078125 0.29688 0.050781 0.042969 0.16016 0.0625 0.32812 0.0625h0.48438v0.67188h-0.8125c-0.375 0-0.64062-0.078125-0.79688-0.23438-0.14844-0.15625-0.21875-0.42188-0.21875-0.79688v-1.25h-0.46875v-0.67188h0.46875v-0.82812z"/>
  </symbol>
  <symbol id="i" overflow="visible">
   <path d="m2.4531-2.5156v-1.5781h0.95312v4.0938h-0.95312v-0.42188c-0.125 0.16797-0.26562 0.29297-0.42188 0.375-0.15625 0.082031-0.33984 0.125-0.54688 0.125-0.36719 0-0.66797-0.14453-0.90625-0.4375-0.23047-0.28906-0.34375-0.66016-0.34375-1.1094 0-0.45703 0.11328-0.82812 0.34375-1.1094 0.23828-0.28906 0.53906-0.4375 0.90625-0.4375 0.20703 0 0.39062 0.042969 0.54688 0.125 0.15625 0.074219 0.29688 0.19922 0.42188 0.375zm-0.60938 1.9062c0.19531 0 0.34766-0.070313 0.45312-0.21875 0.10156-0.14453 0.15625-0.35938 0.15625-0.64062s-0.054687-0.49219-0.15625-0.64062c-0.10547-0.14453-0.25781-0.21875-0.45312-0.21875-0.21094 0-0.36719 0.074219-0.46875 0.21875-0.10547 0.14844-0.15625 0.35938-0.15625 0.64062s0.050781 0.49609 0.15625 0.64062c0.10156 0.14844 0.25781 0.21875 0.46875 0.21875z"/>
  </symbol>
  <symbol id="h" overflow="visible">
   <path d="m2.0156-0.60938c0.20703 0 0.36328-0.070313 0.46875-0.21875 0.10156-0.14453 0.15625-0.35938 0.15625-0.64062s-0.054687-0.49219-0.15625-0.64062c-0.10547-0.14453-0.26172-0.21875-0.46875-0.21875-0.19922 0-0.35547 0.074219-0.46875 0.21875-0.10547 0.14844-0.15625 0.35938-0.15625 0.64062s0.050781 0.49609 0.15625 0.64062c0.11328 0.14844 0.26953 0.21875 0.46875 0.21875zm-0.625-1.9062c0.13281-0.17578 0.28125-0.30078 0.4375-0.375 0.15625-0.082031 0.33594-0.125 0.54688-0.125 0.36328 0 0.66016 0.14844 0.89062 0.4375 0.22656 0.28125 0.34375 0.65234 0.34375 1.1094 0 0.44922-0.11719 0.82031-0.34375 1.1094-0.23047 0.29297-0.52734 0.4375-0.89062 0.4375-0.21094 0-0.39062-0.042969-0.54688-0.125-0.15625-0.082031-0.30469-0.20703-0.4375-0.375v0.42188h-0.9375v-4.0938h0.9375z"/>
  </symbol>
  <symbol id="g" overflow="visible">
   <path d="m0.0625-2.9531h0.95312l0.78125 2 0.67188-2h0.95312l-1.25 3.2344c-0.125 0.32031-0.27344 0.54688-0.4375 0.67188-0.15625 0.13281-0.375 0.20312-0.65625 0.20312h-0.53125v-0.60938h0.28125c0.16406 0 0.28516-0.027344 0.35938-0.078125 0.070312-0.054688 0.12891-0.14844 0.17188-0.28125l0.015625-0.078125z"/>
  </symbol>
  <symbol id="f" overflow="visible">
   <path d="m0.5-3.9375h2.7344v0.78125h-1.7188v0.71875h1.6094v0.76562h-1.6094v1.6719h-1.0156z"/>
  </symbol>
  <symbol id="s" overflow="visible">
   <path d="m0.45312-4.0938h0.9375v4.0938h-0.9375z"/>
  </symbol>
  <symbol id="r" overflow="visible">
   <path d="m2.3906-4.0938v0.60938h-0.51562c-0.13672 0-0.23047 0.027344-0.28125 0.078125-0.054688 0.054688-0.078125 0.13672-0.078125 0.25v0.20312h0.79688v0.67188h-0.79688v2.2812h-0.9375v-2.2812h-0.46875v-0.67188h0.46875v-0.20312c0-0.32031 0.085937-0.55469 0.26562-0.70312 0.17578-0.15625 0.45312-0.23438 0.82812-0.23438z"/>
  </symbol>
  <symbol id="e" overflow="visible">
   <path d="m1.8594-2.3438c-0.21094 0-0.37109 0.078125-0.48438 0.23438-0.10547 0.14844-0.15625 0.35938-0.15625 0.64062s0.050781 0.5 0.15625 0.65625c0.11328 0.14844 0.27344 0.21875 0.48438 0.21875 0.19531 0 0.34766-0.070312 0.45312-0.21875 0.11328-0.15625 0.17188-0.375 0.17188-0.65625s-0.058594-0.49219-0.17188-0.64062c-0.10547-0.15625-0.25781-0.23438-0.45312-0.23438zm0-0.67188c0.5 0 0.89062 0.13672 1.1719 0.40625 0.28906 0.27344 0.4375 0.65234 0.4375 1.1406 0 0.48047-0.14844 0.85938-0.4375 1.1406-0.28125 0.27344-0.67188 0.40625-1.1719 0.40625-0.51172 0-0.91406-0.13281-1.2031-0.40625-0.28125-0.28125-0.42188-0.66016-0.42188-1.1406 0-0.48828 0.14062-0.86719 0.42188-1.1406 0.28906-0.26953 0.69141-0.40625 1.2031-0.40625z"/>
  </symbol>
  <symbol id="q" overflow="visible">
   <path d="m3.1875-2.4531c0.11328-0.1875 0.25391-0.32812 0.42188-0.42188 0.16406-0.09375 0.34766-0.14062 0.54688-0.14062 0.33203 0 0.58594 0.10547 0.76562 0.3125 0.17578 0.21094 0.26562 0.51172 0.26562 0.90625v1.7969h-0.9375v-1.5312-0.078125-0.10938c0-0.20703-0.03125-0.35938-0.09375-0.45312s-0.16406-0.14062-0.29688-0.14062c-0.17969 0-0.32031 0.078125-0.42188 0.23438-0.09375 0.14844-0.14062 0.35547-0.14062 0.625v1.4531h-0.95312v-1.5312c0-0.33203-0.03125-0.54688-0.09375-0.64062-0.054688-0.09375-0.14844-0.14062-0.28125-0.14062-0.1875 0-0.33594 0.078125-0.4375 0.23438-0.09375 0.14844-0.14062 0.35547-0.14062 0.625v1.4531h-0.9375v-2.9531h0.9375v0.4375c0.11328-0.16406 0.24219-0.28906 0.39062-0.375 0.15625-0.082031 0.32812-0.125 0.51562-0.125 0.19531 0 0.375 0.054687 0.53125 0.15625 0.15625 0.09375 0.27344 0.23047 0.35938 0.40625z"/>
  </symbol>
  <symbol id="p" overflow="visible">
   <path d="m3.4219-1.7969v1.7969h-0.95312v-1.375c0-0.25-0.007812-0.42188-0.015625-0.51562-0.011719-0.10156-0.03125-0.17578-0.0625-0.21875-0.03125-0.0625-0.085937-0.10938-0.15625-0.14062-0.0625-0.039062-0.13281-0.0625-0.20312-0.0625-0.19922 0-0.35547 0.078125-0.46875 0.23438-0.11719 0.14844-0.17188 0.35547-0.17188 0.625v1.4531h-0.9375v-4.0938h0.9375v1.5781c0.14453-0.17578 0.29688-0.30078 0.45312-0.375 0.16406-0.082031 0.34375-0.125 0.53125-0.125 0.34375 0 0.60156 0.10547 0.78125 0.3125 0.17578 0.21094 0.26562 0.51172 0.26562 0.90625z"/>
  </symbol>
  <symbol id="o" overflow="visible">
   <path d="m0.5-3.9375h1.125l1.4375 2.7031v-2.7031h0.95312v3.9375h-1.125l-1.4375-2.7031v2.7031h-0.95312z"/>
  </symbol>
  <symbol id="n" overflow="visible">
   <path d="m0.42188-1.1406v-1.8125h0.95312v0.29688c0 0.16797-0.007812 0.37109-0.015625 0.60938v0.48438c0 0.23047 0.003906 0.39844 0.015625 0.5 0.019531 0.10547 0.039062 0.18359 0.0625 0.23438 0.039062 0.0625 0.09375 0.10938 0.15625 0.14062s0.13281 0.046875 0.21875 0.046875c0.19531 0 0.34766-0.070313 0.45312-0.21875 0.11328-0.15625 0.17188-0.36719 0.17188-0.64062v-1.4531h0.95312v2.9531h-0.95312v-0.42188c-0.13672 0.16797-0.28906 0.29297-0.45312 0.375-0.15625 0.082031-0.32812 0.125-0.51562 0.125-0.34375 0-0.60547-0.10156-0.78125-0.3125-0.17969-0.20703-0.26562-0.50781-0.26562-0.90625z"/>
  </symbol>
  <symbol id="m" overflow="visible">
   <path d="m3.4219-1.7969v1.7969h-0.95312v-1.375c0-0.25-0.007812-0.42188-0.015625-0.51562-0.011719-0.10156-0.03125-0.17578-0.0625-0.21875-0.03125-0.0625-0.085937-0.10938-0.15625-0.14062-0.0625-0.039062-0.13281-0.0625-0.20312-0.0625-0.19922 0-0.35547 0.078125-0.46875 0.23438-0.11719 0.14844-0.17188 0.35547-0.17188 0.625v1.4531h-0.9375v-2.9531h0.9375v0.4375c0.14453-0.17578 0.29688-0.30078 0.45312-0.375 0.16406-0.082031 0.34375-0.125 0.53125-0.125 0.34375 0 0.60156 0.10547 0.78125 0.3125 0.17578 0.21094 0.26562 0.51172 0.26562 0.90625z"/>
  </symbol>
  <symbol id="l" overflow="visible">
   <path d="m0.5-3.9375h1.6719c0.5 0 0.88281 0.11719 1.1562 0.34375 0.26953 0.21875 0.40625 0.53906 0.40625 0.95312 0 0.40625-0.13672 0.72656-0.40625 0.95312-0.27344 0.21875-0.65625 0.32812-1.1562 0.32812h-0.65625v1.3594h-1.0156zm1.0156 0.73438v1.1094h0.54688c0.19531 0 0.34766-0.046875 0.45312-0.14062 0.11328-0.10156 0.17188-0.23828 0.17188-0.40625 0-0.17578-0.058594-0.3125-0.17188-0.40625-0.10547-0.10156-0.25781-0.15625-0.45312-0.15625z"/>
  </symbol>
  <symbol id="k" overflow="visible">
   <path d="m0.45312-2.9531h0.9375v2.9062c0 0.39453-0.09375 0.69141-0.28125 0.89062-0.1875 0.20703-0.46484 0.3125-0.82812 0.3125h-0.45312v-0.60938h0.15625c0.17578 0 0.29688-0.042969 0.35938-0.125 0.070312-0.085937 0.10938-0.24219 0.10938-0.46875zm0-1.1406h0.9375v0.76562h-0.9375z"/>
  </symbol>
  <symbol id="j" overflow="visible">
   <path d="m2.8281-2.8594v0.76562c-0.125-0.082031-0.25781-0.14453-0.39062-0.1875-0.125-0.039062-0.25781-0.0625-0.39062-0.0625-0.26172 0-0.46484 0.078125-0.60938 0.23438-0.14844 0.14844-0.21875 0.35938-0.21875 0.64062 0 0.27344 0.070312 0.48438 0.21875 0.64062 0.14453 0.15625 0.34766 0.23438 0.60938 0.23438 0.14453 0 0.28516-0.019531 0.42188-0.0625 0.13281-0.050781 0.25391-0.11719 0.35938-0.20312v0.76562c-0.14844 0.0625-0.29688 0.10156-0.45312 0.125-0.14844 0.03125-0.29688 0.046875-0.45312 0.046875-0.53125 0-0.94922-0.13281-1.25-0.40625-0.29297-0.28125-0.4375-0.66016-0.4375-1.1406 0-0.48828 0.14453-0.86719 0.4375-1.1406 0.30078-0.26953 0.71875-0.40625 1.25-0.40625 0.15625 0 0.30469 0.015625 0.45312 0.046875 0.15625 0.023438 0.30469 0.058594 0.45312 0.10938z"/>
  </symbol>
 </defs>
 <g>
  <path d="m306.92 471.15c0 3.9766 2.1719 7.4453 5.3828 9.3125l0.003906 17.613c0 2.9727 2.4102 5.3828 5.3828 5.3828s5.3828-2.4102 5.3828-5.3828v-17.609c3.2109-1.8633 5.3828-5.3359 5.3828-9.3125v-10.77h-21.539z"/>
  <path d="m242.31 471.15c0 3.9766 2.1719 7.4453 5.3828 9.3125v17.613c0 2.9727 2.4102 5.3828 5.3828 5.3828 2.9727 0 5.3828-2.4102 5.3828-5.3828v-17.609c3.2109-1.8633 5.3828-5.3359 5.3828-9.3125v-10.77h-21.539z"/>
  <path d="m263.85 94.23c0-3.9766-2.1719-7.4453-5.3828-9.3125l-0.003906-17.609c0-2.9727-2.4102-5.3828-5.3828-5.3828s-5.3828 2.4102-5.3828 5.3828v17.613c-3.2109 1.8633-5.3828 5.3359-5.3828 9.3125v10.77h21.539z"/>
  <path d="m328.46 94.23c0-3.9766-2.1719-7.4453-5.3828-9.3125v-17.609c0-2.9727-2.4102-5.3828-5.3828-5.3828-2.9727 0-5.3828 2.4102-5.3828 5.3828v17.613c-3.2109 1.8633-5.3828 5.3359-5.3828 9.3125v10.77h21.539z"/>
  <path d="m371.54 471.15c0 3.9766 2.1719 7.4453 5.3828 9.3125v17.613c0 2.9727 2.4102 5.3828 5.3828 5.3828 2.9727 0 5.3828-2.4102 5.3828-5.3828v-17.609c3.2109-1.8633 5.3828-5.3359 5.3828-9.3125v-10.77h-21.539z"/>
  <path d="m441.54 180.38h10.77v10.77h-10.77z"/>
  <path d="m436.15 471.15c0 3.9766 2.1719 7.4453 5.3828 9.3125l0.003906 17.613c0 2.9727 2.4102 5.3828 5.3828 5.3828s5.3828-2.4102 5.3828-5.3828v-17.609c3.2109-1.8633 5.3828-5.3359 5.3828-9.3125v-10.77h-21.539z"/>
  <path d="m247.69 180.38h10.77v10.77h-10.77z"/>
  <path d="m140 455c-8.9062 0-16.152 7.2461-16.152 16.152 0 8.9102 7.2461 16.152 16.152 16.152s16.152-7.2461 16.152-16.152-7.2461-16.152-16.152-16.152z"/>
  <path d="m441.54 374.23h10.77v10.77h-10.77z"/>
  <path d="m152.23 245h-17.609c-2.9727 0-5.3828 2.4102-5.3828 5.3828 0 2.9727 2.4102 5.3828 5.3828 5.3828h17.613c1.8633 3.2148 5.3359 5.3828 9.3125 5.3828h10.77v-21.539l-10.773 0.007813c-3.9766 0-7.4453 2.168-9.3125 5.3828z"/>
  <path d="m152.23 374.23h-17.609c-2.9727 0-5.3828 2.4102-5.3828 5.3828 0 2.9727 2.4102 5.3828 5.3828 5.3828h17.613c1.8633 3.2109 5.3359 5.3828 9.3125 5.3828h10.77v-21.539l-10.773 0.007812c-3.9766 0-7.4453 2.1719-9.3125 5.3828z"/>
  <path d="m393.08 94.23c0-3.9766-2.1719-7.4453-5.3828-9.3125l-0.003906-17.609c0-2.9727-2.4102-5.3828-5.3828-5.3828s-5.3828 2.4102-5.3828 5.3828v17.613c-3.2109 1.8633-5.3828 5.3359-5.3828 9.3125v10.77h21.539z"/>
  <path d="m547.77 191.15h17.609c2.9727 0 5.3828-2.4102 5.3828-5.3828 0-2.9727-2.4102-5.3828-5.3828-5.3828h-17.613c-1.8633-3.2148-5.3359-5.3828-9.3125-5.3828h-10.77v21.539h10.77c3.9805-0.003907 7.4492-2.1758 9.3164-5.3906z"/>
  <path d="m152.23 309.62h-17.609c-2.9727 0-5.3828 2.4102-5.3828 5.3828s2.4102 5.3828 5.3828 5.3828h17.613c1.8633 3.2109 5.3359 5.3828 9.3125 5.3828h10.77v-21.539l-10.773 0.003907c-3.9766 0-7.4453 2.1719-9.3125 5.3867z"/>
  <path d="m152.23 180.38h-17.609c-2.9727 0-5.3828 2.4102-5.3828 5.3828s2.4102 5.3828 5.3828 5.3828h17.613c1.8633 3.2148 5.3359 5.3828 9.3125 5.3828h10.77v-21.539l-10.773 0.007812c-3.9766 0-7.4453 2.1719-9.3125 5.3828z"/>
  <path d="m365.83 254.95c0-8.7266-7.1016-15.828-15.828-15.828s-15.828 7.1016-15.828 15.828v6.0391h31.656z"/>
  <path d="m457.69 94.23c0-3.9766-2.1719-7.4453-5.3828-9.3125v-17.609c0-2.9727-2.4102-5.3828-5.3828-5.3828-2.9727 0-5.3828 2.4102-5.3828 5.3828v17.613c-3.2109 1.8633-5.3828 5.3359-5.3828 9.3125v10.77h21.539z"/>
  <path d="m516.92 141.62c0-14.25-11.594-25.848-25.848-25.848h-282.15c-14.25 0-25.848 11.594-25.848 25.848v282.15c0 14.25 11.594 25.848 25.848 25.848h282.15c14.25 0 25.848-11.594 25.848-25.848v-282.15zm-32.305 270.3c0 2.9727-2.4102 5.3828-5.3828 5.3828l-258.46 0.003906c-2.9727 0-5.3828-2.4102-5.3828-5.3828v-258.46c0-2.9727 2.4102-5.3828 5.3828-5.3828h258.46c2.9727 0 5.3828 2.4102 5.3828 5.3828z"/>
  <path d="m247.69 374.23h10.77v10.77h-10.77z"/>
  <path d="m269.23 368.85v16.152h161.54v-16.152c0-2.9727 2.4102-5.3828 5.3828-5.3828h16.152v-161.54h-16.152c-2.9727 0-5.3828-2.4102-5.3828-5.3828v-16.152l-161.54-0.007813v16.152c0 2.9727-2.4102 5.3828-5.3828 5.3828h-16.152v161.54h16.152c2.9727 0.003907 5.3828 2.4141 5.3828 5.3906zm80.77-177.7c50.473 0 91.539 41.062 91.539 91.539 0 50.473-41.062 91.539-91.539 91.539-50.473 0-91.539-41.062-91.539-91.539 0-50.473 41.066-91.539 91.539-91.539z"/>
  <path d="m557.31 99.617c13.359 0 24.23-10.871 24.23-24.23s-10.871-24.23-24.23-24.23c-13.359-0.003906-24.23 10.867-24.23 24.227 0 13.363 10.871 24.234 24.23 24.234z"/>
  <path d="m226.15 406.54h247.69v-247.69h-247.69zm10.77-231.54c0-2.9727 2.4102-5.3828 5.3828-5.3828h215.38c2.9727 0 5.3828 2.4102 5.3828 5.3828v215.38c0 2.9727-2.4102 5.3828-5.3828 5.3828h-215.38c-2.9727 0-5.3828-2.4102-5.3828-5.3828v-215.38z"/>
  <path d="m547.77 255.77h17.609c2.9727 0 5.3828-2.4102 5.3828-5.3828 0-2.9727-2.4102-5.3828-5.3828-5.3828h-17.613c-1.8633-3.2148-5.3359-5.3828-9.3125-5.3828h-10.77v21.539h10.77c3.9805-0.007812 7.4492-2.1758 9.3164-5.3906z"/>
  <path d="m344.62 332.21v-40.902c0-2.9727 2.4102-5.3828 5.3828-5.3828s5.3828 2.4102 5.3828 5.3828v40.902c11.551-2.4805 20.234-12.766 20.234-25.043v-35.406h-51.234v35.406c0 12.281 8.6836 22.562 20.234 25.043z"/>
  <path d="m350 363.46c44.535 0 80.77-36.234 80.77-80.77s-36.234-80.77-80.77-80.77-80.77 36.234-80.77 80.77 36.234 80.77 80.77 80.77zm-58.266-40.605 13.055-18.766c1.0078-1.4492 2.6562-2.3086 4.418-2.3086h4.4062v-7.1797h-10.934c-2.9727 0-5.3828-2.4102-5.3828-5.3828s2.4102-5.3828 5.3828-5.3828h10.934v-6.3633h-4.4062c-1.7617 0-3.4141-0.86328-4.418-2.3086l-13.055-18.766c-1.6992-2.4414-1.0977-5.7969 1.3438-7.4961 2.4414-1.6953 5.7969-1.0977 7.4961 1.3438l11.445 16.453h1.5938v-0.32812c0-2.9727 2.4102-5.3828 5.3828-5.3828h4.4062v-6.0391c0-4.6172 1.1875-8.9648 3.2656-12.754v-14.988c0-2.9727 2.4102-5.3828 5.3828-5.3828 2.9727 0 5.3828 2.4102 5.3828 5.3828v4.3047c7.7109-4.1523 17.172-4.2812 25.129 0v-4.3047c0-2.9727 2.4102-5.3828 5.3828-5.3828 2.9727 0 5.3828 2.4102 5.3828 5.3828v14.988c2.0781 3.7891 3.2617 8.1328 3.2617 12.75v6.0391h4.4062c2.9727 0 5.3828 2.4102 5.3828 5.3828v0.32812h1.5938l11.445-16.453c1.6992-2.4414 5.0547-3.043 7.4961-1.3438 2.4414 1.6992 3.043 5.0547 1.3438 7.4961l-13.055 18.766c-1.0078 1.4453-2.6562 2.3086-4.418 2.3086h-4.4062v6.3633h10.934c2.9727 0 5.3828 2.4102 5.3828 5.3828s-2.4102 5.3828-5.3828 5.3828h-10.934v7.1797h4.4062c1.7617 0 3.4141 0.86328 4.418 2.3086l13.055 18.766c1.6992 2.4414 1.0977 5.7969-1.3438 7.4961-2.4375 1.6953-5.7969 1.0977-7.4961-1.3438l-11.445-16.453h-1.9922c-2.6094 17.52-17.754 31.004-35.988 31.004-18.234 0-33.375-13.484-35.988-31.004h-1.9922l-11.445 16.453c-1.6953 2.4375-5.0547 3.043-7.4961 1.3438-2.4336-1.6914-3.0352-5.0508-1.3359-7.4922z"/>
  <path d="m547.77 320.38h17.609c2.9727 0 5.3828-2.4102 5.3828-5.3828s-2.4102-5.3828-5.3828-5.3828h-17.613c-1.8633-3.2109-5.3359-5.3828-9.3125-5.3828h-10.77v21.539h10.77c3.9805-0.003907 7.4492-2.1758 9.3164-5.3906z"/>
  <path d="m134.62 118.46c0 4.4609-3.6172 8.0781-8.0781 8.0781-4.4609 0-8.0781-3.6172-8.0781-8.0781 0-4.4609 3.6172-8.0781 8.0781-8.0781 4.4609 0 8.0781 3.6172 8.0781 8.0781"/>
  <path d="m183.08 59.23c0 4.4609-3.6172 8.0781-8.0781 8.0781s-8.0781-3.6172-8.0781-8.0781c0-4.4609 3.6172-8.0781 8.0781-8.0781s8.0781 3.6172 8.0781 8.0781"/>
  <path d="m581.54 425.38c0 4.4609-3.6172 8.0781-8.0781 8.0781-4.4609 0-8.0781-3.6172-8.0781-8.0781 0-4.457 3.6172-8.0742 8.0781-8.0742 4.4609 0 8.0781 3.6172 8.0781 8.0742"/>
  <path d="m527.69 495.38c0 4.4609-3.6172 8.0781-8.0742 8.0781-4.4609 0-8.0781-3.6172-8.0781-8.0781 0-4.457 3.6172-8.0742 8.0781-8.0742 4.457 0 8.0742 3.6172 8.0742 8.0742"/>
  <path d="m220.77 500.77c0 4.4609-3.6172 8.0781-8.0781 8.0781-4.4609 0-8.0742-3.6172-8.0742-8.0781 0-4.4609 3.6133-8.0781 8.0742-8.0781 4.4609 0 8.0781 3.6172 8.0781 8.0781"/>
  <path d="m506.15 59.23c0 4.4609-3.6133 8.0781-8.0742 8.0781s-8.0781-3.6172-8.0781-8.0781c0-4.4609 3.6172-8.0781 8.0781-8.0781s8.0742 3.6172 8.0742 8.0781"/>
  <path d="m581.54 140c0 4.4609-3.6172 8.0781-8.0781 8.0781-4.4609 0-8.0781-3.6172-8.0781-8.0781s3.6172-8.0781 8.0781-8.0781c4.4609 0 8.0781 3.6172 8.0781 8.0781"/>
  <path d="m565.38 385c2.9727 0 5.3828-2.4102 5.3828-5.3828 0-2.9727-2.4102-5.3828-5.3828-5.3828h-17.613c-1.8633-3.2109-5.3359-5.3828-9.3125-5.3828h-10.77v21.539h10.77c3.9766 0 7.4453-2.1719 9.3125-5.3828z"/>
  <use x="70" y="576.152344" xlink:href="#t"/>
  <use x="73.953125" y="576.152344" xlink:href="#c"/>
  <use x="76.605469" y="576.152344" xlink:href="#b"/>
  <use x="80.257812" y="576.152344" xlink:href="#d"/>
  <use x="83.894531" y="576.152344" xlink:href="#a"/>
  <use x="86.464844" y="576.152344" xlink:href="#b"/>
  <use x="90.117188" y="576.152344" xlink:href="#i"/>
  <use x="95.847656" y="576.152344" xlink:href="#h"/>
  <use x="99.703125" y="576.152344" xlink:href="#g"/>
  <use x="105.085938" y="576.152344" xlink:href="#f"/>
  <use x="108.765625" y="576.152344" xlink:href="#s"/>
  <use x="110.609375" y="576.152344" xlink:href="#d"/>
  <use x="114.246094" y="576.152344" xlink:href="#a"/>
  <use x="116.816406" y="576.152344" xlink:href="#d"/>
  <use x="120.453125" y="576.152344" xlink:href="#c"/>
  <use x="123.105469" y="576.152344" xlink:href="#a"/>
  <use x="70" y="581.539062" xlink:href="#r"/>
  <use x="72.34375" y="581.539062" xlink:href="#c"/>
  <use x="75" y="581.539062" xlink:href="#e"/>
  <use x="78.699219" y="581.539062" xlink:href="#q"/>
  <use x="86.183594" y="581.539062" xlink:href="#a"/>
  <use x="88.757812" y="581.539062" xlink:href="#p"/>
  <use x="92.589844" y="581.539062" xlink:href="#b"/>
  <use x="98.117188" y="581.539062" xlink:href="#o"/>
  <use x="102.625" y="581.539062" xlink:href="#e"/>
  <use x="106.324219" y="581.539062" xlink:href="#n"/>
  <use x="110.15625" y="581.539062" xlink:href="#m"/>
  <use x="115.863281" y="581.539062" xlink:href="#l"/>
  <use x="119.808594" y="581.539062" xlink:href="#c"/>
  <use x="122.464844" y="581.539062" xlink:href="#e"/>
  <use x="126.164062" y="581.539062" xlink:href="#k"/>
  <use x="128.011719" y="581.539062" xlink:href="#b"/>
  <use x="131.664062" y="581.539062" xlink:href="#j"/>
  <use x="134.855469" y="581.539062" xlink:href="#a"/>
 </g>
</svg>
